<?xml version="1.0" encoding="utf-8"?>
<!-- Generator: Adobe Illustrator 19.2.1, SVG Export Plug-In . SVG Version: 6.00 Build 0)  -->
<svg version="1.1" id="_x37_61e89da-8c54-4468-8271-a4265e7681bb"
	 xmlns="http://www.w3.org/2000/svg" xmlns:xlink="http://www.w3.org/1999/xlink" x="0px" y="0px" viewBox="0 0 85 85"
	 style="enable-background:new 0 0 85 85;" xml:space="preserve">
<style type="text/css">
	.st0{fill-rule:evenodd;clip-rule:evenodd;fill:#7B7C7E;}
	.st1{fill-rule:evenodd;clip-rule:evenodd;fill:#81B2C5;}
</style>
<title>co2ersparnis-all-01</title>
<g>
	<path class="st0" d="M53.3,36.6h16.6l0.6,4.4H52.9L53.3,36.6L53.3,36.6z M9.5,51l36.2,5.1l1.9,14.2l1.4,0.2l3.5-26.4h18.4l4.6,30.7
		H54.6h-6.2h-39V51L9.5,51z M15.3,59.1v3.4h6.1v-3.4H15.3L15.3,59.1z M25.2,59.1v3.4h6.1v-3.4H25.2z"/>
	<path class="st1" d="M54.7,13.4c-0.7,0-1.3,0.1-2,0.2c-0.8-0.8-1.8-1.5-2.9-2.1c-1.6-0.8-3.5-1.3-5.5-1.3c-3,0-5.8,1.1-7.9,2.9
		c-0.4,0.4-0.8,0.8-1.2,1.2c-1.2-0.8-2.7-1.3-4.3-1.3c-1.9,0-3.7,0.7-5,1.9v0c-0.7,0.6-1.3,1.4-1.6,2.3c-0.3,0-0.7,0-1,0
		c-3,0-5.8,1.1-7.8,2.9c-2,1.8-3.2,4.3-3.2,7c0,2.7,1.2,5.2,3.2,7c2,1.8,4.7,2.9,7.8,2.9c1.9,0,3.8-0.5,5.4-1.3
		c0.9-0.5,1.7-1,2.4-1.7c0.2,0.1,0.4,0.1,0.5,0.2c1,0.3,2.1,0.5,3.2,0.5c2.1,0,4-0.6,5.6-1.7c0.9-0.6,1.7-1.4,2.4-2.3
		c0.5,0.1,0.9,0.1,1.4,0.1c1.1,0,2.1-0.1,3.2-0.4c0.4-0.1,0.8-0.2,1.1-0.4c0.6,0.4,1.2,0.7,1.9,1c1.1,0.4,2.2,0.7,3.4,0.8
		c0,0.1,0.1,0.1,0.1,0.2c0.4,0.8,0.9,1.5,1.6,2.1l0.8,0.7h1.1h1.6v-4.7h-0.3l0-0.1c-0.1-0.3-0.2-0.6-0.2-0.9l-0.2-2.6l-2.8,0.4
		c-0.1,0-0.3,0-0.4,0c-0.1,0-0.3,0-0.4,0c-0.7,0-1.4-0.1-2-0.4c-0.6-0.3-1.2-0.6-1.7-1.1l-1.5-1.5l-1.8,1.1c-0.5,0.3-1,0.5-1.6,0.7
		c-0.5,0.1-1.1,0.2-1.7,0.2c-0.4,0-0.7,0-1-0.1c-0.4-0.1-0.7-0.1-1-0.2L39.8,25L39,27.4c-0.3,0.8-0.8,1.5-1.5,2
		c-0.7,0.5-1.6,0.7-2.5,0.7c-0.5,0-1-0.1-1.4-0.2c-0.4-0.1-0.9-0.4-1.2-0.7l-2.3-1.7l-1.6,2.3c-0.5,0.8-1.3,1.4-2.1,1.9
		c-0.8,0.4-1.8,0.7-2.9,0.7c-1.6,0-3.1-0.6-4.1-1.5c-1.1-1-1.7-2.3-1.7-3.7c0-1.5,0.7-2.8,1.7-3.7c1.1-1,2.5-1.5,4.1-1.5
		c0.4,0,0.8,0,1.1,0.1c0.4,0.1,0.7,0.2,1.1,0.3l3.5-2.5l0-0.1c0,0,0-0.1,0-0.1c0-0.5,0.2-0.9,0.5-1.2l0,0c0.3-0.3,0.8-0.5,1.3-0.5
		c0.5,0,1,0.2,1.3,0.5l0,0c0.3,0.3,0.5,0.7,0.5,1.2c0,0.1,0,0.2,0,0.2c0,0,0,0.1,0,0.2l-0.6,2.6l3,0.2l0.1,0v0l0.1,0l2.7,0.2
		l0.1-2.4c0.1-1.5,0.8-2.8,1.9-3.8c1.1-1,2.6-1.5,4.3-1.5c1.1,0,2.1,0.2,3,0.7c0.9,0.5,1.7,1.1,2.3,1.9l1.2,1.7l2-0.8
		c0.3-0.1,0.6-0.2,0.9-0.3c0.3-0.1,0.6-0.1,1-0.1c1.4,0,2.6,0.5,3.6,1.3c0.9,0.8,1.5,2,1.5,3.2c0,0.2,0,0.4,0,0.5
		c0,0.2,0,0.3-0.1,0.5l-0.6,2.5l2.9,0.3c0.8,0.1,1.4,0.4,1.9,0.9c0.5,0.5,0.8,1.1,0.8,1.8c0,0.4-0.1,0.7-0.2,1c0,0,0,0.1-0.1,0.1H64
		v4.7h1.7h1.1l0.8-0.7c0.7-0.7,1.3-1.5,1.7-2.3c0.4-0.9,0.6-1.8,0.6-2.7c0-1.9-0.8-3.6-2.1-5c-0.8-0.8-1.7-1.4-2.8-1.8
		c-0.1-2.4-1.2-4.6-3-6.2C60.1,14.4,57.6,13.4,54.7,13.4L54.7,13.4z"/>
</g>
</svg>
