<?xml version="1.0" encoding="utf-8"?>
<!-- Generator: Adobe Illustrator 19.2.1, SVG Export Plug-In . SVG Version: 6.00 Build 0)  -->
<svg version="1.1" id="_x37_e48f4ca-d298-4461-870d-ef0466073339"
	 xmlns="http://www.w3.org/2000/svg" xmlns:xlink="http://www.w3.org/1999/xlink" x="0px" y="0px" viewBox="0 0 85 85"
	 style="enable-background:new 0 0 85 85;" xml:space="preserve">
<style type="text/css">
	.st0{fill:#CDDBB6;}
	.st1{fill:#A6A8AA;}
</style>
<title>co2ersparnis-trees-01</title>
<g>
	<polygon class="st0" points="39.2,15.1 50.3,31 44.9,31 46.9,34.5 54.6,47.8 50,47.8 59.6,64.5 42.9,65.5 43.4,73.8 35.9,73.8 
		36.4,65.5 18.9,64.5 28.5,47.8 23.9,47.8 31.6,34.5 33.6,31 28.2,31 	"/>
</g>
<g>
	<polygon class="st1" points="63.5,11.2 71.1,22.2 67.3,22.2 68.8,24.6 74.1,33.8 70.9,33.8 77.5,45.3 66,46 66.3,51.8 61.1,51.8 
		61.5,46 58.1,46.1 55.8,42.6 53.3,38.7 56,33.8 52.9,33.8 58.2,24.6 59.6,22.2 55.8,22.2 	"/>
</g>
<g>
	<polygon class="st1" points="15,11.2 7.4,22.2 11.2,22.2 9.7,24.6 4.4,33.8 7.6,33.8 1,45.3 12.5,46 12.2,51.8 17.4,51.8 17,46 
		20.4,46.1 22.7,42.6 25.2,38.7 22.5,33.8 25.6,33.8 20.3,24.6 18.9,22.2 22.7,22.2 	"/>
</g>
</svg>
