<?xml version="1.0" encoding="utf-8"?>
<!-- Generator: Adobe Illustrator 19.2.1, SVG Export Plug-In . SVG Version: 6.00 Build 0)  -->
<svg version="1.1" id="_x38_f4ac4df-47fa-4606-9bfa-36dc34e92a8f"
	 xmlns="http://www.w3.org/2000/svg" xmlns:xlink="http://www.w3.org/1999/xlink" x="0px" y="0px" viewBox="0 0 85 85"
	 style="enable-background:new 0 0 85 85;" xml:space="preserve">
<style type="text/css">
	.st0{fill:#7B7C7E;}
	.st1{fill:#D6CBBF;}
</style>
<title>co2ersparnis-cars-01</title>
<g>
	<g>
		<path class="st0" d="M65.6,57.7V65h8.5l1.4-24.1l-9.3-6.7c0-0.1,0-0.2-0.1-0.3l-4.9-12.3c-0.4-0.9-1.3-1.6-2.3-1.6H42.6H26.3
			c-1,0-1.9,0.7-2.3,1.6L19,33.9c0,0.1-0.1,0.2-0.1,0.3l-9.3,6.7L11.1,65h8.5v-7.3h-5.9l-0.1-1.8h23.2c-1.3-3.9-2.4-8.6-2.4-8.6
			l8.3-1.3l8.4,1.3c0,0-1.1,4.7-2.4,8.6h23.1l-0.1,1.8H65.6z M13.9,49.4v-4.3l14.2,1.4l1.5,2.8H13.9z M42.6,34.2H30.2l-9-0.4
			l4.6-11.5c0.1-0.1,0.3-0.3,0.4-0.3h16.4h16.3c0.1,0,0.4,0.2,0.4,0.3l4.6,11.5L55,34.2H42.6z M71.2,49.4H55.7l1.4-2.8l14.2-1.4
			V49.4z"/>
		<g>
			<polygon class="st0" points="69.4,34.8 75,33.2 75.5,29.5 66.7,30.5 67.7,33.8 			"/>
			<polygon class="st0" points="15.5,34.8 17.3,33.7 18.2,30.5 9.5,29.5 10,33.2 			"/>
		</g>
	</g>
	<path class="st0" d="M46.4,26.7h-7.5c-0.3,0-0.5-0.2-0.5-0.5v-1.8c0-0.3,0.2-0.5,0.5-0.5h7.5c0.3,0,0.5,0.2,0.5,0.5v1.8
		C46.9,26.5,46.7,26.7,46.4,26.7z"/>
	<rect x="41.4" y="20.5" class="st0" width="2.4" height="3.8"/>
	<path class="st1" d="M66.7,57.7h-1.1H45c0.7-0.8,1.3-1.7,1.6-2.7c0.7-2,1-3.8,1.1-5.1l-5.1-1l-5.1,1c0.1,1.3,0.4,3.1,1.1,5.1
		c0.4,1,1,1.9,1.6,2.7H19.7h-1.1h-7.9l0.4,7.3h8.6v-4.7h45.9V65h8.5l0.4-7.3H66.7z"/>
</g>
</svg>
