<?xml version="1.0" encoding="utf-8"?>
<!-- Generator: Adobe Illustrator 19.2.1, SVG Export Plug-In . SVG Version: 6.00 Build 0)  -->
<svg version="1.1" id="_x32_f77fb73-fa38-4e0c-b552-14305183e960"
	 xmlns="http://www.w3.org/2000/svg" xmlns:xlink="http://www.w3.org/1999/xlink" x="0px" y="0px" viewBox="0 0 85 85"
	 style="enable-background:new 0 0 85 85;" xml:space="preserve">
<style type="text/css">
	.st0{fill:#7B7C7E;}
	.st1{fill:#D6C790;}
	.st2{fill:#FFFFFF;}
</style>
<title>costs-all-01</title>
<g>
	<polygon class="st0" points="61.6,37.8 79.5,33.6 79.5,31.5 79.5,30.4 61.6,34.6 	"/>
	<polygon class="st0" points="42.2,42.4 42.2,39.2 24.8,43.4 24.1,43.5 23.6,43.2 5.5,33.5 5.5,33.6 5.5,36.5 24.4,46.7 	"/>
	<polygon class="st0" points="61.6,42.5 79.5,38.3 79.5,36.2 79.5,35.1 61.6,39.3 	"/>
	<polygon class="st0" points="42.2,47.1 42.2,43.9 24.8,48.1 24.1,48.2 23.6,47.9 5.5,38.2 5.5,38.3 5.5,41.2 24.4,51.4 	"/>
	<polygon class="st0" points="61.6,47.4 79.5,43.2 79.5,41.1 79.5,40 61.6,44.2 	"/>
	<polygon class="st0" points="42.2,52 42.2,48.8 24.8,53 24.1,53.1 23.6,52.8 5.5,43.1 5.5,43.2 5.5,46.1 24.4,56.3 	"/>
	<polygon class="st0" points="61.6,52.4 79.5,48.2 79.5,46.1 79.5,44.9 61.6,49.2 	"/>
	<polygon class="st0" points="24.8,58 24.1,58.1 23.6,57.8 5.5,48.1 5.5,48.2 5.5,51.1 24.4,61.3 42.2,57 42.2,53.8 	"/>
	<polygon class="st0" points="61.6,57.7 79.5,53.5 79.5,51.4 79.5,50.2 61.6,54.5 	"/>
	<polygon class="st0" points="24.8,63.2 24.1,63.4 23.6,63.1 5.5,53.3 5.5,53.5 5.5,56.4 24.4,66.6 42.2,62.3 42.2,59.1 	"/>
	<path class="st0" d="M61.6,32.3v0.6l17.9-4.2L60.6,18.4l-17.2,4.1l2.3,1.2L56,21.3c0,0,0.1,0.1,0.1,0.1c0.8,0.4,2.1,0.7,3.5,0.7
		c0.8,0,1.6-0.1,2.3-0.2c0,0,0,0,0,0l9.5,5.1c0,0,0,0,0,0c-1.9,0.5-2.4,1.4-1.2,2.1c0,0,0,0,0,0L60,31.5L61.6,32.3z"/>
	<path class="st0" d="M41.5,37.6l-2.3-1.2l-10,2.4c0,0,0,0,0,0c-0.8-0.4-2.1-0.7-3.5-0.7c-0.8,0-1.6,0.1-2.3,0.2
		c-0.1,0-0.1,0-0.2,0.1l-9.5-5.1c0.1,0,0.1,0,0.2,0c1.9-0.5,2.4-1.4,1.2-2.1c0,0-0.1-0.1-0.2-0.1l10-2.4l-2.3-1.2L5.5,31.5
		l18.9,10.2L41.5,37.6z"/>
	<polygon class="st1" points="25.8,27 44.1,36.9 44.1,61.8 59.7,58.1 59.7,33.4 41.1,23.4 	"/>
	<g>
		<path class="st2" d="M36.3,25l-1.9,0.6l1.7,1c-1.7,0.8-1.7,1.9-0.2,2.8c1.7,1,4,1.1,6.7,0.8c1.9-0.2,3-0.1,3.6,0.3
			c0.7,0.4,0.3,0.9-0.8,1.2c-1.3,0.4-2.8,0.5-4,0.5l1.5,1.4c1.1,0,2.7-0.2,4.1-0.6l1.7,1l1.9-0.6l-1.8-1c1.9-0.9,1.8-2,0.2-2.9
			c-1.6-0.9-3.5-1.2-6.5-0.9c-2.2,0.2-3.3,0.2-3.9-0.1c-0.5-0.3-0.6-0.7,0.7-1.1c1.4-0.4,2.7-0.5,3.4-0.5l-1.4-1.3
			c-1,0-2.1,0.2-3.4,0.5L36.3,25"/>
	</g>
</g>
</svg>
